<svg xmlns="http://www.w3.org/2000/svg" viewBox="0 0 512 512">
  <defs>
    <linearGradient id="bg" x1="0" y1="0" x2="1" y2="1">
      <stop offset="0" stop-color="#3b82f6"/>
      <stop offset="1" stop-color="#1d4ed8"/>
    </linearGradient>
    <linearGradient id="hat" x1="0" y1="0" x2="0" y2="1">
      <stop offset="0" stop-color="#fde047"/>
      <stop offset="1" stop-color="#f59e0b"/>
    </linearGradient>
  </defs>
  <rect width="512" height="512" rx="120" fill="url(#bg)"/>
  <ellipse cx="256" cy="340" rx="160" ry="46" fill="url(#hat)"/>
  <ellipse cx="256" cy="340" rx="160" ry="46" fill="none" stroke="#b45309" stroke-width="6" opacity="0.4"/>
  <path d="M128 336 a128 122 0 0 1 256 0 z" fill="url(#hat)"/>
  <path d="M128 336 a128 122 0 0 1 256 0" fill="none" stroke="#b45309" stroke-width="6" opacity="0.4"/>
  <path d="M256 222 V336" stroke="#d97706" stroke-width="16" stroke-linecap="round" opacity="0.75"/>
  <path d="M178 262 q78 -46 156 0" stroke="#d97706" stroke-width="13" fill="none" opacity="0.55"/>
  <circle cx="212" cy="290" r="10" fill="#b45309" opacity="0.5"/>
  <circle cx="300" cy="290" r="10" fill="#b45309" opacity="0.5"/>
  <path d="M188 300 a92 92 0 0 1 70 -72" stroke="#fffbeb" stroke-width="14" fill="none" opacity="0.6" stroke-linecap="round"/>
</svg>
